<?xml version="1.0" encoding="UTF-8" standalone="no"?>
<!DOCTYPE svg PUBLIC "-//W3C//DTD SVG 1.1//EN" "http://www.w3.org/Graphics/SVG/1.1/DTD/svg11.dtd">
<svg width="100" height="100" xmlns="http://www.w3.org/2000/svg" xmlns:xlink="http://www.w3.org/1999/xlink">
  <g transform="translate(50,50)">
    <path d="M2.4492935982947065e-15,-40A40,40,0,0,1,2.704537982777746,39.90846369255164L0,0Z" fill="#6da8e1"></path><path d="M-25.04740790153256,-31.186974162528887A40,40,0,0,1,-13.276314125141147,-37.73247253030972L0,0Z" fill="#f2d92d"></path><path d="M2.704537982777746,39.90846369255164A40,40,0,0,1,-25.04740790153256,-31.186974162528887L0,0Z" fill="#e25050"></path><path d="M-13.276314125141147,-37.73247253030972A40,40,0,0,1,-8.820040482752068,-39.0154698277826L0,0Z" fill="#f0a330"></path><path d="M-2.3186449081939258,-39.93274202693457A40,40,0,0,1,-0.7732669432323552,-39.9925250294915L0,0Z" fill="#99d2d0"></path><path d="M-0.7732669432323552,-39.9925250294915A40,40,0,0,1,-0.38665153584334816,-39.99813121371835L0,0Z" fill="#CEC6B9"></path><path d="M-0.38665153584334816,-39.99813121371835A40,40,0,0,1,-4.2875017582889124e-14,-40L0,0Z" fill="#65a68c"></path><path d="M-8.820040482752068,-39.0154698277826A40,40,0,0,1,-5.013329342572184,-39.68458805257911L0,0Z" fill="#827996"></path><path d="M-5.013329342572184,-39.68458805257911A40,40,0,0,1,-2.3186449081939258,-39.93274202693457L0,0Z" fill="#99bf70"></path>
  </g>
</svg>